HIERARCHY
ROOT Hips
{
  OFFSET 1.44925e-005 102.336 -0.101585
  CHANNELS 6 Xposition Yposition Zposition Zrotation Xrotation Yrotation
  JOINT LeftUpLeg
  {
    OFFSET 8.9458 -8.66707 0.101652
    CHANNELS 3 Zrotation Xrotation Yrotation
    JOINT LeftLeg
    {
      OFFSET 0 -44.4227 1.3727
      CHANNELS 3 Zrotation Xrotation Yrotation
      JOINT LeftFoot
      {
        OFFSET -0.253549 -42.0924 -1.46059
        CHANNELS 3 Zrotation Xrotation Yrotation
        JOINT LeftToes
        {
          OFFSET -0.04 -4.41509 8.4991
          CHANNELS 3 Zrotation Xrotation Yrotation
          End Site
          {
            OFFSET 0.08 -0.047448 9.77979
          }
        }
      }
    }
  }
  JOINT Spine
  {
    OFFSET 0 11.8905 0
    CHANNELS 3 Zrotation Xrotation Yrotation
    JOINT Spine1
    {
      OFFSET 0 25.6574 0.127663
      CHANNELS 3 Zrotation Xrotation Yrotation
      JOINT RightShoulder
      {
        OFFSET -8.99 -0.362252 -0.22
        CHANNELS 3 Zrotation Xrotation Yrotation
        JOINT RightArm
        {
          OFFSET -10.2827 -0.00338 0.322123
          CHANNELS 3 Zrotation Xrotation Yrotation
          JOINT RightForeArm
          {
            OFFSET -26.364 0.099144 -1.42434
            CHANNELS 3 Zrotation Xrotation Yrotation
            JOINT RightHand
            {
              OFFSET -22.0324 0.085362 1.02216
              CHANNELS 3 Zrotation Xrotation Yrotation
              End Site
              {
                OFFSET -13.3284 -0.6 1.50291
              }
            }
          }
        }
      }
      JOINT LeftShoulder1
      {
        OFFSET 8.99 -0.362252 -0.22
        CHANNELS 3 Zrotation Xrotation Yrotation
        JOINT LeftArm
        {
          OFFSET 10.2827 -0.00337999 0.322123
          CHANNELS 3 Zrotation Xrotation Yrotation
          JOINT LeftForeArm
          {
            OFFSET 26.2597 0.099144 -1.42434
            CHANNELS 3 Zrotation Xrotation Yrotation
            JOINT LeftHand
            {
              OFFSET 22.0902 0.085362 1.02216
              CHANNELS 3 Zrotation Xrotation Yrotation
              End Site
              {
                OFFSET 13.419 -0.6 1.50291
              }
            }
          }
        }
      }
      JOINT Head
      {
        OFFSET 0 8.73416 0.011341
        CHANNELS 3 Zrotation Xrotation Yrotation
        End Site
        {
          OFFSET -0.29 12.7742 2.51395
        }
      }
    }
  }
  JOINT RightUpLeg
  {
    OFFSET -8.9458 -8.66707 0.101652
    CHANNELS 3 Zrotation Xrotation Yrotation
    JOINT RightLeg
    {
      OFFSET 0 -44.4227 1.3727
      CHANNELS 3 Zrotation Xrotation Yrotation
      JOINT RightFoot
      {
        OFFSET 0.253549 -42.0924 -1.46059
        CHANNELS 3 Zrotation Xrotation Yrotation
        JOINT RightToes
        {
          OFFSET 0.04 -4.41509 8.4991
          CHANNELS 3 Zrotation Xrotation Yrotation
          End Site
          {
            OFFSET -0.08 -0.137448 9.77979
          }
        }
      }
    }
  }
}
MOTION
Frames:	10
Frame Time:	0.0333333
41.4484 98.2053 1.1234 -7.58166 -2.81073 -93.9031 -10.1735 9.08826 0.294226 1.12178 20.2983 21.755 -0.593538 -25.7747 0.0468865 -1.36625e-009 8.75222e-006 -1.47856e-008 -1.88718 16.257 0.06404 -3.67903 0.273562 0.390568 37.2981 1.8079 0.157294 36.1471 -21.5125 -6.28708 11.3679 43.3537 1.9727 -16.7659 8.97491 1.26135 -43.3298 3.43187 -3.37502 -26.6716 -8.86653 -6.71962 3.73072 30.3508 -30.7467 5.82328 9.61819 -0.917488 -1.34519 -16.2528 -2.11306 -3.85188 -31.1118 -3.02245 -1.71872 57.0458 -16.6317 9.30345 -11.9793 0.15477 0.0462048 0.000530889 0.662642 
36.1855 97.646 1.08158 -7.7203 -2.71764 -92.2961 -9.54937 14.2526 1.65138 0.991664 17.3242 18.9707 -0.818901 -27.3491 0.00603608 -1.36625e-009 8.75222e-006 -1.47856e-008 -2.09311 16.1766 -0.656838 -2.03221 0.641264 -0.567573 37.5048 1.80287 0.127764 33.0303 -21.6435 -12.3192 10.0467 39.7372 4.59516 -16.6609 9.03762 0.845395 -43.0622 3.41132 -3.37399 -26.4082 -10.9286 -10.6568 5.95044 31.8075 -36.0628 5.82328 9.61819 -0.917488 -1.05905 -16.8027 -2.10609 -4.01118 -31.2897 -4.15496 -1.21778 42.4344 -16.0779 9.77428 -12.3166 0.200714 0.0462048 0.000530889 0.662642 
30.7021 96.4736 0.958258 -8.12331 -2.89294 -90.743 -8.86628 19.2544 3.33199 0.702065 15.7836 15.6307 -2.10039 -29.2134 -0.246316 -1.36625e-009 8.75222e-006 -1.47856e-008 -2.82025 16.0507 -1.30489 -0.13388 1.42452 -1.63399 37.4098 1.79565 0.119425 30.2771 -22.4184 -16.9435 9.67763 37.8877 5.21653 -16.3483 9.11608 0.386106 -42.7585 3.38707 -3.37081 -26.5808 -12.8249 -14.5898 8.07028 32.8713 -40.3746 5.82328 9.61819 -0.917488 -1.13952 -17.7789 -1.95731 -4.42635 -30.327 -4.71166 -0.926333 28.5777 -15.5779 10.4851 -13.1693 0.307549 0.0462048 0.000530889 0.662642 
24.9075 94.8217 0.678916 -8.46909 -3.42047 -88.697 -8.18601 23.4875 4.85158 0.8221 16.368 12.1507 -3.05511 -30.9204 -0.47457 -1.36625e-009 8.75222e-006 -1.47856e-008 -4.67408 15.6866 -1.97855 2.6217 2.24005 -3.08196 37.0896 1.77825 0.106989 27.459 -24.3261 -20.2517 9.98937 38.3185 3.85001 -15.8562 9.14497 0.356898 -42.1846 3.33548 -3.35247 -27.7625 -14.8412 -17.8846 10.0404 33.7959 -43.6142 5.82328 9.61819 -0.917488 -1.30397 -18.6778 -1.67479 -5.46156 -29.3765 -5.2949 -0.518882 19.952 -16.1673 11.6576 -15.2078 0.561463 0.0462048 0.000530889 0.662642 
18.8754 93.4136 0.324526 -8.23926 -3.60478 -86.2222 -6.91513 26.4541 5.03614 1.52474 18.2975 9.62672 -5.05447 -31.6436 -0.935435 -1.36625e-009 8.75222e-006 -1.47856e-008 -6.28678 14.9991 -2.79615 5.78249 2.63375 -4.75038 36.8331 1.74898 0.0612283 24.6138 -26.5321 -22.8954 10.2088 39.1908 1.84336 -15.4856 9.14548 0.499479 -41.4878 3.27199 -3.3274 -29.6034 -16.5814 -19.6999 11.6079 34.4915 -45.8432 5.82328 9.61819 -0.917488 -1.50461 -18.8985 -1.43772 -6.16245 -29.3448 -6.0956 -0.158817 18.9956 -17.5164 11.3586 -16.3653 0.651489 0.0462048 0.000530889 0.662642 
12.5346 92.4773 0.037407 -7.82432 -2.6133 -84.758 -4.46239 28.2661 3.2256 1.56984 21.7188 9.72445 -9.82617 -30.0377 -1.82511 -1.36625e-009 8.75222e-006 -1.47856e-008 -5.32973 14.0828 -3.64824 7.51636 2.54017 -5.80622 36.7237 1.72476 0.0141458 21.9704 -28.9438 -25.2469 9.89989 38.6858 0.317476 -15.3421 9.18788 0.219274 -41.1944 3.25096 -3.32833 -30.9973 -17.8204 -19.2693 12.762 34.9352 -47.4583 5.82328 9.61819 -0.917488 -1.94312 -18.4387 -1.21833 -4.80468 -29.9765 -7.39288 -0.686644 23.853 -17.2536 8.49478 -14.0934 0.286946 0.0462048 0.000530889 0.662642 
5.94245 91.8462 -0.150864 -7.9674 -0.158763 -85.153 -1.0173 28.6097 2.84144 0.712594 28.4131 11.4998 -13.6709 -23.4637 -1.82621 -1.36625e-009 8.75222e-006 -1.47856e-008 -1.14524 13.25 -4.24683 6.9142 2.44254 -5.68654 36.6558 1.72295 0.015669 20.1265 -31.7838 -26.5819 9.24913 36.6652 -0.4971 -15.2746 9.27394 -0.448893 -41.5297 3.29216 -3.36288 -31.3876 -18.6034 -16.6547 13.587 35.1238 -48.8367 5.82328 9.61819 -0.917488 -2.48912 -17.9726 -0.863235 -1.15565 -30.5665 -6.35133 -1.08194 30.9717 -16.9837 4.35688 -9.2196 -0.119742 0.0462048 0.000530889 0.662642 
-0.551175 91.5663 -0.376322 -8.47577 2.47025 -86.5019 2.66782 25.7325 6.00316 1.10057 39.9115 13.2423 -11.778 -10.4944 -0.325741 -1.36625e-009 8.75222e-006 -1.47856e-008 3.80106 12.6701 -4.39997 5.40672 2.71962 -4.88065 36.6035 1.7361 0.0508274 20.414 -34.3142 -25.4436 8.66472 34.4785 -0.711675 -15.2429 9.32265 -0.832709 -42.1575 3.35653 -3.39989 -31.2961 -18.6759 -13.139 13.8812 35.0729 -49.5962 5.82328 9.61819 -0.917488 -2.69358 -18.0093 -0.641321 2.96307 -30.1943 -4.94228 -1.10923 37.4678 -16.1897 0.862473 -6.88248 -0.185301 0.0462048 0.000530889 0.662642 
-6.28376 91.5382 -0.729555 -8.7467 5.01111 -86.7078 6.64088 18.4214 6.58681 1.60568 55.0404 17.1164 -6.59106 2.26341 0.565574 -1.36625e-009 8.75222e-006 -1.47856e-008 7.55281 12.4387 -4.58401 5.04413 3.40508 -4.28728 36.6507 1.74177 0.0597018 23.3852 -35.6591 -21.3145 8.4709 33.8411 -0.360316 -15.189 9.29434 -0.584171 -42.6631 3.40046 -3.41246 -31.5433 -17.5459 -10.3416 13.488 35.0834 -48.722 5.82328 9.61819 -0.917488 -2.46556 -18.2477 -1.16739 5.89627 -28.7805 -5.38644 -1.17659 42.0497 -15.431 -0.797918 -9.60336 -0.195835 0.0462048 0.000530889 0.662642 
-11.3912 91.8687 -1.12306 -8.84994 6.70621 -85.096 9.47932 8.66294 4.99558 2.72908 69.8868 19.3392 -2.90539 5.07819 0.303511 -1.36625e-009 8.75222e-006 -1.47856e-008 9.9793 12.4263 -4.90561 5.65742 3.92531 -4.01996 36.8387 1.73412 0.0264247 28.0506 -35.1631 -15.0606 8.63561 34.4734 0.780795 -15.031 9.24537 -0.12775 -43.0584 3.43146 -3.41508 -32.1903 -15.1315 -8.75942 12.5291 35.4778 -45.588 5.82328 9.61819 -0.917488 -2.22124 -18.0493 -2.59886 7.58046 -26.1381 -6.79628 -1.22894 44.1077 -15.7426 -0.145987 -14.5065 -0.220936 0.0462048 0.000530889 0.662642 
